# xmcd CD database file generated by OrangeCD 6.4
#
# Track frame offsets:
#	150
#	1691
#	18227
#	35176
#	67065
#	87274
#	102725
#	122105
#	146209
#	166267
#
# Disc length: 2617 seconds
#
# Revision: 0
# Processed by: cddbd v1.5.2PL0 Copyright (c) Steve Scherf et al.
# Submitted via: OrangeCD 6.4
#
DISCID=880a370a
DTITLE=Rubik - Solar
DYEAR=2011
DGENRE=Alt.Rock
TTITLE0=Through The Haze Of Our National Anthems
TTITLE1=World Around You
TTITLE2=Sun's Eyes
TTITLE3=Storm In A Glass Of Water
TTITLE4=Solar Death March (In Octaves)
TTITLE5=Laws Of Gravity
TTITLE6=Crisis Meeting At The Lyceum
TTITLE7=Not A Hero
TTITLE8=Towers Upon Towers
TTITLE9=The Dark Continent
EXTD=
EXTT0=
EXTT1=
EXTT2=
EXTT3=
EXTT4=
EXTT5=
EXTT6=
EXTT7=
EXTT8=
EXTT9=
PLAYORDER=
